# File created by Blade
# Date/Time:  Mon Sep 22 17:46:01 2014
# Frame Rate: 120.000 fps
#------------------------------------------------------
:FULLY-SPECIFIED
:DEGREES
1558
root 6.505158 36.972712 5.312006 -14.534238 -8.513565 -3.384477
RightUpLeg -14.793031 -40.446354 -16.248850
RightLeg 67.389620 -0.000000 -0.000000
RightFoot -3.294528 -30.176351 13.193389
RightToeBase -5.657032 -0.000000 0.000000
LeftUpLeg 23.007733 0.992943 -6.521902
LeftLeg -2.457465 -0.000000 0.000000
LeftFoot -11.754425 15.632997 -9.639264
LeftToeBase 7.739911 -0.000000 -0.000000
Spine 21.184261 -6.442802 -8.432624
RightShoulder -0.511252 -31.671289 -4.022727
RightArm 20.409588 -23.042536 64.535074
RightForeArm 7.517655 -0.000000 43.019527
RightHand -3.434119 -0.000000 -7.898331
RightHandThumb1 -24.326973 -0.000000 -32.862282
LeftShoulder -17.832746 33.284105 0.483366
LeftArm 53.400596 -13.500548 -72.099172
LeftForeArm 25.640942 -0.000000 108.868546
LeftHand -27.607598 -0.000000 15.832410
LeftHandThumb1 -26.253704 0.000000 33.147579
Head 23.584974 3.409591 12.285844
1559
root 6.497673 36.969982 5.316903 -14.515913 -8.712244 -3.375837
RightUpLeg -14.629777 -40.443444 -16.320267
RightLeg 67.115875 -0.000000 -0.000000
RightFoot -3.269018 -30.198909 13.157732
RightToeBase -5.296765 -0.000000 0.000000
LeftUpLeg 23.007125 1.049713 -6.517936
LeftLeg -2.480150 -0.000000 0.000000
LeftFoot -11.791576 15.710093 -9.692221
LeftToeBase 7.679012 -0.000000 -0.000000
Spine 21.135334 -6.360367 -8.427230
RightShoulder -0.494389 -31.678456 -4.022377
RightArm 20.404377 -23.015671 64.582308
RightForeArm 7.505297 -0.000000 43.013420
RightHand -3.475874 -0.000000 -7.877968
RightHandThumb1 -24.326973 -0.000000 -32.862282
LeftShoulder -17.837679 33.277840 0.494982
LeftArm 53.337980 -13.673435 -72.193029
LeftForeArm 25.506177 -0.000000 108.869418
LeftHand -27.567455 -0.000000 15.712222
LeftHandThumb1 -26.253704 0.000000 33.147579
Head 23.600426 3.479839 12.248918
1560
root 6.492764 36.967494 5.320702 -14.504004 -8.901972 -3.348641
RightUpLeg -14.462184 -40.385220 -16.431247
RightLeg 66.850777 -0.000000 -0.000000
RightFoot -3.212393 -30.166967 13.157169
RightToeBase -5.656180 -0.000000 0.000000
LeftUpLeg 22.992771 1.163725 -6.513734
LeftLeg -2.473897 -0.000000 0.000000
LeftFoot -11.840217 15.723126 -9.761038
LeftToeBase 7.702891 -0.000000 -0.000000
Spine 21.100154 -6.290322 -8.449122
RightShoulder -0.474562 -31.675800 -4.025001
RightArm 20.416724 -23.013708 64.605816
RightForeArm 7.482910 0.000000 43.003421
RightHand -3.485017 -0.000000 -7.863258
RightHandThumb1 -24.326973 -0.000000 -32.862282
LeftShoulder -17.847069 33.260515 0.515272
LeftArm 53.258606 -13.834411 -72.292061
LeftForeArm 25.417885 -0.000000 108.888980
LeftHand -27.616098 -0.000000 15.575172
LeftHandThumb1 -26.253704 0.000000 33.147579
Head 23.607280 3.574763 12.226224
1561
root 6.492625 36.964790 5.321984 -14.484665 -9.059583 -3.299967
RightUpLeg -14.293309 -40.341894 -16.585161
RightLeg 66.589498 -0.000000 -0.000000
RightFoot -3.193351 -30.145492 13.188967
RightToeBase -5.458578 -0.000000 0.000000
LeftUpLeg 22.947492 1.312197 -6.518022
LeftLeg -2.433032 -0.000000 0.000000
LeftFoot -11.872923 15.661931 -9.786594
LeftToeBase 7.697231 -0.000000 -0.000000
Spine 21.067225 -6.240651 -8.500308
RightShoulder -0.468937 -31.656308 -4.013281
RightArm 20.414785 -23.002265 64.631900
RightForeArm 7.476967 -0.000000 43.013178
RightHand -3.541202 -0.000000 -7.832440
RightHandThumb1 -24.326973 -0.000000 -32.862282
LeftShoulder -17.869900 33.257203 0.530068
LeftArm 53.210982 -13.975678 -72.403362
LeftForeArm 25.421665 -0.000000 108.902826
LeftHand -27.620124 -0.000000 15.581758
LeftHandThumb1 -26.253704 0.000000 33.147579
Head 23.599912 3.667077 12.221964
